<?xml version="1.0" encoding="UTF-8"?>
<svg version="1.1" xmlns="http://www.w3.org/2000/svg" width="512" height="512">
<path d="M0 0 C3.48634837 1.32955942 6.73011817 2.85758487 10 4.65234375 C10.957854 5.17562256 11.91570801 5.69890137 12.90258789 6.23803711 C13.92473389 6.79885986 14.94687988 7.35968262 16 7.9375 C18.18575866 9.12580832 20.37196403 10.3132953 22.55859375 11.5 C25.59901428 13.15147565 28.63931041 14.80310468 31.67626953 16.4609375 C75.11130425 40.09533422 121.6029815 58.80031384 171 64 C171 47.5 171 31 171 14 C174.43924966 15.37569986 176.98585399 16.47792675 180.01171875 18.3984375 C181.13598267 19.1092749 181.13598267 19.1092749 182.28295898 19.83447266 C183.07645752 20.34284668 183.86995605 20.8512207 184.6875 21.375 C185.51386963 21.90013184 186.34023926 22.42526367 187.19165039 22.96630859 C193.93049403 27.26797014 200.59269361 31.68181929 207.21166992 36.16552734 C208.26511597 36.87636475 208.26511597 36.87636475 209.33984375 37.6015625 C209.95206787 38.01744629 210.56429199 38.43333008 211.19506836 38.86181641 C213.07556234 40.04764935 214.99680127 41.03857505 217 42 C217.22816406 41.31550781 217.45632812 40.63101563 217.69140625 39.92578125 C219.31159381 36.30333205 221.54989878 33.32585674 223.9375 30.1875 C228.05409522 24.68013527 232.05461354 19.11228385 235.9375 13.4375 C236.38536865 12.78354248 236.8332373 12.12958496 237.29467773 11.45581055 C237.93578491 10.51668823 237.93578491 10.51668823 238.58984375 9.55859375 C238.99702637 8.96288574 239.40420898 8.36717773 239.82373047 7.75341797 C240.6101692 6.58110518 241.38007898 5.39753961 242.13330078 4.20361328 C243.04162678 2.77133367 244.01501401 1.3806823 245 0 C245.66 0 246.32 0 247 0 C248.67136758 2.21610961 250.220272 4.43799999 251.75 6.75 C252.7333752 8.2090077 253.7178028 9.66730647 254.703125 11.125 C255.23099609 11.90875 255.75886719 12.6925 256.30273438 13.5 C259.32283141 17.94847435 262.41310083 22.34774327 265.5 26.75 C266.0990918 27.6069043 266.69818359 28.46380859 267.31542969 29.34667969 C270.41770275 33.80328389 270.41770275 33.80328389 273.68554688 38.13769531 C275 40 275 40 275 42 C281.66716939 38.45468695 287.93943364 34.4839974 294.1875 30.25 C296.03074105 29.01226257 297.87449279 27.77528532 299.71875 26.5390625 C300.61335938 25.93868164 301.50796875 25.33830078 302.4296875 24.71972656 C306.00021562 22.33078279 309.58459088 19.96478975 313.1875 17.625 C314.81751953 16.56152344 314.81751953 16.56152344 316.48046875 15.4765625 C319 14 319 14 321 14 C321 30.5 321 47 321 64 C373.63767794 58.61660112 422.06215136 37.1688938 468.375 12.4375 C469.00756714 12.09997711 469.64013428 11.76245422 470.29187012 11.41470337 C475.86140899 8.43336734 481.40174479 5.44117459 486.7265625 2.03515625 C490 0 490 0 492 0 C492.07501586 4.49825874 492.12900383 8.99617127 492.16479492 13.49487305 C492.17973934 15.02032832 492.20010247 16.54574172 492.22631836 18.07104492 C492.50482804 34.71063305 489.77877853 46.98893447 478.609375 59.60546875 C471.64164408 65.99950925 463.96019793 68.60801872 455 71.3125 C453.84371094 71.67150391 452.68742187 72.03050781 451.49609375 72.40039062 C448.66703936 73.27716368 445.83520598 74.14337189 443 75 C455.6094452 78.57876766 468.27011196 81.87732391 481 85 C480.08429254 93.04105615 472.71738318 98.76463896 466.8125 103.75 C458.00534477 110.19647445 447.976977 113.15921622 437.51953125 115.6796875 C436.60030884 115.90519287 435.68108643 116.13069824 434.73400879 116.36303711 C432.49031616 116.91284024 430.24568343 117.45839694 428 118 C428.00276538 119.17831957 428.00276538 119.17831957 428.00558662 120.38044357 C428.04994469 139.58141213 428.08294304 158.78237033 428.10362434 177.98337936 C428.113894 187.26921185 428.12787086 196.55500993 428.15087891 205.84082031 C428.17094589 213.94357683 428.18374767 222.04630841 428.18817699 230.1490891 C428.19076207 234.43103583 428.19674578 238.71291125 428.21146011 242.9948349 C428.2820352 264.36810759 428.16065855 285.39773325 423.8125 306.4375 C423.59891846 307.48043213 423.38533691 308.52336426 423.1652832 309.59790039 C416.2671085 341.79508803 401.26636071 372.83606785 380 398 C379.54334961 398.54543457 379.08669922 399.09086914 378.61621094 399.65283203 C369.49297288 410.53831119 360.16541691 420.15639826 349 429 C347.58654297 430.15628906 347.58654297 430.15628906 346.14453125 431.3359375 C330.17939456 444.09978546 311.96487964 453.85018024 294.32470703 464.06982422 C288.81958517 467.26585105 283.32672608 470.48272205 277.83496094 473.70162964 C275.9576282 474.80071593 274.07860185 475.89685581 272.19921875 476.99243164 C267.08958238 479.97582535 261.9940331 482.96768789 257.00390625 486.1484375 C255.95891968 486.80815552 255.95891968 486.80815552 254.89282227 487.48120117 C253.16858468 488.5800607 251.45846114 489.70098769 249.75 490.82421875 C247 492 247 492 244.609375 491.515625 C241.0823229 489.46697797 237.65131689 487.31341732 234.25 485.0625 C232.72403427 484.06368607 231.19799043 483.06499145 229.671875 482.06640625 C228.89521484 481.55609863 228.11855469 481.04579102 227.31835938 480.52001953 C223.72327394 478.1629216 220.11137413 475.83203099 216.5 473.5 C215.07281178 472.57698507 213.64572854 471.65380781 212.21875 470.73046875 C211.51621094 470.27591309 210.81367188 469.82135742 210.08984375 469.35302734 C208.06959055 468.045055 206.0502749 466.73564864 204.03125 465.42578125 C202.68756289 464.55459049 201.34381194 463.68349819 200 462.8125 C198.98015015 462.15121094 198.98015015 462.15121094 197.93969727 461.4765625 C193.61601807 458.67805195 189.27917612 455.90110648 184.93359375 453.13671875 C128.16175169 417.00840127 84.032731 372.55766147 68.77099609 304.75561523 C68.55781738 303.76376221 68.34463867 302.77190918 68.125 301.75 C67.93373535 300.86578369 67.7424707 299.98156738 67.54541016 299.07055664 C63.49341019 278.635743 63.7240453 258.00600215 63.79721212 237.27889919 C63.80988167 233.07227176 63.81090256 228.86564015 63.81326294 224.65899658 C63.81943078 216.72645895 63.83577662 208.79397774 63.85596192 200.86146474 C63.87846889 191.81644098 63.88935121 182.77141426 63.89935279 173.72636938 C63.92014814 155.15088117 63.95523072 136.57544515 64 118 C63.15159798 117.79538651 63.15159798 117.79538651 62.28605652 117.5866394 C59.68297973 116.9558855 57.081742 116.31783675 54.48046875 115.6796875 C53.59097534 115.46530029 52.70148193 115.25091309 51.78503418 115.0300293 C35.89907142 111.1141413 21.69953112 103.92836675 12.0625 90.25 C11 88 11 88 11 85 C23.87 81.7 36.74 78.4 50 75 C41.19698684 72.33182274 41.19698684 72.33182274 32.38110352 69.70678711 C19.69954322 65.74729467 10.52231552 58.92205855 4.25 47.125 C-0.79781038 37.19763959 -0.24741375 26.74340094 -0.125 15.9375 C-0.11495008 14.38867766 -0.10582779 12.83984901 -0.09765625 11.29101562 C-0.07580207 7.52718572 -0.04138343 3.76366377 0 0 Z " fill="#A165F4" transform="translate(10,10)"/>
<path d="M0 0 C2.92137389 1.30116867 4.72019936 2.60221194 6.8125 5 C15.03962289 13.45712847 26.08555639 19.75549415 37 24 C37.96486328 24.38768555 37.96486328 24.38768555 38.94921875 24.78320312 C67.30382869 36.11988233 97.17483823 41.52712661 127.625 42.5625 C129.41744141 42.62727539 129.41744141 42.62727539 131.24609375 42.69335938 C134.16397406 42.79840307 137.08192438 42.90055648 140 43 C140.09418617 59.37043371 140.16433768 75.74077715 140.20724869 92.11141777 C140.2277184 99.71564767 140.25553311 107.31970753 140.30175781 114.92382812 C140.34211122 121.56536943 140.36754542 128.2067874 140.37635398 134.84844792 C140.38148846 138.35270254 140.3932124 141.8566049 140.42292023 145.36074448 C140.68543742 177.63074311 136.37002223 207.8806671 122 237 C121.4225 238.17175781 120.845 239.34351563 120.25 240.55078125 C102.64177035 274.58520661 75.23635539 296.94890554 43.05078125 316.3359375 C38.98529658 318.78746621 34.94287421 321.27146364 30.91796875 323.7890625 C29.95439453 324.39137695 28.99082031 324.99369141 27.99804688 325.61425781 C26.15475267 326.76903872 24.31352811 327.92713127 22.47460938 329.08886719 C21.65154297 329.60352539 20.82847656 330.11818359 19.98046875 330.6484375 C19.25754639 331.10395996 18.53462402 331.55948242 17.78979492 332.02880859 C16 333 16 333 14 333 C14.68964844 334.06476563 15.37929688 335.12953125 16.08984375 336.2265625 C18.04627608 339.24740592 20.00015076 342.26988883 21.953125 345.29296875 C23.87086942 348.26012529 25.79735077 351.22117931 27.734375 354.17578125 C28.14953369 354.81241699 28.56469238 355.44905273 28.99243164 356.10498047 C29.77708962 357.30817614 30.56523368 358.509107 31.35717773 359.70751953 C34 363.77424212 34 363.77424212 34 366 C32.13916016 367.32519531 32.13916016 367.32519531 29.5390625 368.828125 C28.59160156 369.38113281 27.64414062 369.93414062 26.66796875 370.50390625 C25.66378906 371.08011719 24.65960938 371.65632813 23.625 372.25 C21.67950477 373.37989376 19.73419127 374.51010049 17.7890625 375.640625 C16.34321777 376.46723633 16.34321777 376.46723633 14.86816406 377.31054688 C12.95623704 378.43674155 11.07163196 379.61065697 9.21777344 380.83007812 C8.34926758 381.39662109 7.48076172 381.96316406 6.5859375 382.546875 C5.82071777 383.06604492 5.05549805 383.58521484 4.26708984 384.12011719 C2 385 2 385 -0.54785156 384.30053711 C-2.70967133 383.15398057 -4.77772649 381.99013755 -6.8203125 380.64453125 C-7.51584229 380.18989502 -8.21137207 379.73525879 -8.92797852 379.2668457 C-10.01550415 378.54694458 -10.01550415 378.54694458 -11.125 377.8125 C-12.63650288 376.82258697 -14.14822206 375.83300414 -15.66015625 374.84375 C-16.39637207 374.36035156 -17.13258789 373.87695312 -17.89111328 373.37890625 C-22.23180865 370.54072062 -26.61764811 367.773281 -31 365 C-30.34873519 361.45251018 -28.88549229 358.95815252 -26.9453125 355.9375 C-26.33042969 354.97585938 -25.71554688 354.01421875 -25.08203125 353.0234375 C-24.43621094 352.02570313 -23.79039062 351.02796875 -23.125 350 C-22.48691406 349.00226563 -21.84882813 348.00453125 -21.19140625 346.9765625 C-16.30619289 339.36827613 -16.30619289 339.36827613 -14.22998047 336.87109375 C-13.82408691 336.25363281 -13.41819336 335.63617188 -13 335 C-14.25124263 331.2462721 -15.50944692 330.72526707 -18.78515625 328.59375 C-19.78281006 327.93793945 -20.78046387 327.28212891 -21.80834961 326.60644531 C-22.88221924 325.91131836 -23.95608887 325.21619141 -25.0625 324.5 C-27.27399052 323.04771677 -29.48492749 321.59459027 -31.6953125 320.140625 C-32.77844727 319.43099609 -33.86158203 318.72136719 -34.97753906 317.99023438 C-40.73693762 314.19777742 -46.4095705 310.28221007 -52.06835938 306.34179688 C-54.13965468 304.90299012 -56.21838102 303.47525915 -58.296875 302.046875 C-76.33088003 289.57936619 -91.94163732 275.70850637 -105 258 C-105.4228125 257.43216797 -105.845625 256.86433594 -106.28125 256.27929688 C-131.42822079 222.05584131 -138.38091036 182.48226564 -138.20278788 141.0351665 C-138.19011092 137.57725001 -138.18909688 134.11932836 -138.18673706 130.66139221 C-138.18057132 124.14184588 -138.16422847 117.62236827 -138.14403808 111.10285193 C-138.12152439 103.66850973 -138.11064714 96.2341639 -138.10064721 88.79979599 C-138.07985664 73.53315781 -138.04477837 58.26658784 -138 43 C-137.02993515 42.94563278 -136.0598703 42.89126556 -135.06040955 42.83525085 C-131.40742033 42.62979576 -127.75464248 42.420765 -124.10191345 42.21073914 C-122.53106509 42.12089977 -120.96016342 42.03198699 -119.38920593 41.94407654 C-80.59955936 39.77050876 -37.88382856 32.24668668 -7 7 C-5.99259766 6.20335938 -5.99259766 6.20335938 -4.96484375 5.390625 C-2.04355 3.06843897 -2.04355 3.06843897 0 0 Z " fill="#FEFEFE" transform="translate(255,117)"/>
<path d="M0 0 C3.48634837 1.32955942 6.73011817 2.85758487 10 4.65234375 C10.957854 5.17562256 11.91570801 5.69890137 12.90258789 6.23803711 C13.92473389 6.79885986 14.94687988 7.35968262 16 7.9375 C18.18575866 9.12580832 20.37196403 10.3132953 22.55859375 11.5 C25.59901428 13.15147565 28.63931041 14.80310468 31.67626953 16.4609375 C75.11130425 40.09533422 121.6029815 58.80031384 171 64 C171 47.5 171 31 171 14 C174.43924966 15.37569986 176.98585399 16.47792675 180.01171875 18.3984375 C181.13598267 19.1092749 181.13598267 19.1092749 182.28295898 19.83447266 C183.07645752 20.34284668 183.86995605 20.8512207 184.6875 21.375 C185.51386963 21.90013184 186.34023926 22.42526367 187.19165039 22.96630859 C193.93049403 27.26797014 200.59269361 31.68181929 207.21166992 36.16552734 C208.26511597 36.87636475 208.26511597 36.87636475 209.33984375 37.6015625 C209.95206787 38.01744629 210.56429199 38.43333008 211.19506836 38.86181641 C213.07556234 40.04764935 214.99680127 41.03857505 217 42 C217.22816406 41.31550781 217.45632812 40.63101563 217.69140625 39.92578125 C219.31159381 36.30333205 221.54989878 33.32585674 223.9375 30.1875 C228.05409522 24.68013527 232.05461354 19.11228385 235.9375 13.4375 C236.38536865 12.78354248 236.8332373 12.12958496 237.29467773 11.45581055 C237.93578491 10.51668823 237.93578491 10.51668823 238.58984375 9.55859375 C238.99702637 8.96288574 239.40420898 8.36717773 239.82373047 7.75341797 C240.6101692 6.58110518 241.38007898 5.39753961 242.13330078 4.20361328 C243.04162678 2.77133367 244.01501401 1.3806823 245 0 C245.66 0 246.32 0 247 0 C248.67136758 2.21610961 250.220272 4.43799999 251.75 6.75 C252.7333752 8.2090077 253.7178028 9.66730647 254.703125 11.125 C255.23099609 11.90875 255.75886719 12.6925 256.30273438 13.5 C259.32283141 17.94847435 262.41310083 22.34774327 265.5 26.75 C266.0990918 27.6069043 266.69818359 28.46380859 267.31542969 29.34667969 C270.41770275 33.80328389 270.41770275 33.80328389 273.68554688 38.13769531 C275 40 275 40 275 42 C281.66716939 38.45468695 287.93943364 34.4839974 294.1875 30.25 C296.03074105 29.01226257 297.87449279 27.77528532 299.71875 26.5390625 C300.61335938 25.93868164 301.50796875 25.33830078 302.4296875 24.71972656 C306.00021562 22.33078279 309.58459088 19.96478975 313.1875 17.625 C314.81751953 16.56152344 314.81751953 16.56152344 316.48046875 15.4765625 C319 14 319 14 321 14 C321 30.5 321 47 321 64 C373.63767794 58.61660112 422.06215136 37.1688938 468.375 12.4375 C469.00756714 12.09997711 469.64013428 11.76245422 470.29187012 11.41470337 C475.86140899 8.43336734 481.40174479 5.44117459 486.7265625 2.03515625 C490 0 490 0 492 0 C492.07501586 4.49825874 492.12900383 8.99617127 492.16479492 13.49487305 C492.17973934 15.02032832 492.20010247 16.54574172 492.22631836 18.07104492 C492.50482804 34.71063305 489.77877853 46.98893447 478.609375 59.60546875 C471.64164408 65.99950925 463.96019793 68.60801872 455 71.3125 C453.84371094 71.67150391 452.68742187 72.03050781 451.49609375 72.40039062 C448.66703936 73.27716368 445.83520598 74.14337189 443 75 C455.6094452 78.57876766 468.27011196 81.87732391 481 85 C480.08429254 93.04105615 472.71738318 98.76463896 466.8125 103.75 C436.71635452 125.87951873 391.65963481 118.68745789 357.3923645 113.49301147 C343.33949051 111.2998308 329.62904941 108.08218513 316 104 C314.66654541 103.60240479 314.66654541 103.60240479 313.30615234 103.19677734 C289.966687 96.05295711 265.54365682 85.32351836 248.46728516 67.42895508 C247.03832993 65.89264584 247.03832993 65.89264584 245 65 C245 65.66 245 66.32 245 67 C243.43404011 68.46176104 241.79392831 69.84449814 240.125 71.1875 C239.22007812 71.92355469 238.31515625 72.65960938 237.3828125 73.41796875 C192.44305505 108.27235157 119.62392141 124.31851506 63.3359375 117.49609375 C44.30202128 114.72668107 26.71184562 108.0033548 14 93 C11 88.58241758 11 88.58241758 11 85 C23.87 81.7 36.74 78.4 50 75 C41.19698684 72.33182274 41.19698684 72.33182274 32.38110352 69.70678711 C19.69954322 65.74729467 10.52231552 58.92205855 4.25 47.125 C-0.79781038 37.19763959 -0.24741375 26.74340094 -0.125 15.9375 C-0.11495008 14.38867766 -0.10582779 12.83984901 -0.09765625 11.29101562 C-0.07580207 7.52718572 -0.04138343 3.76366377 0 0 Z " fill="#FEAA6F" transform="translate(10,10)"/>
<path d="M0 0 C2.92137389 1.30116867 4.72019936 2.60221194 6.8125 5 C15.03962289 13.45712847 26.08555639 19.75549415 37 24 C37.96486328 24.38768555 37.96486328 24.38768555 38.94921875 24.78320312 C67.30382869 36.11988233 97.17483823 41.52712661 127.625 42.5625 C129.41744141 42.62727539 129.41744141 42.62727539 131.24609375 42.69335938 C134.16397406 42.79840307 137.08192438 42.90055648 140 43 C140.09418617 59.37043371 140.16433768 75.74077715 140.20724869 92.11141777 C140.2277184 99.71564767 140.25553311 107.31970753 140.30175781 114.92382812 C140.34211122 121.56536943 140.36754542 128.2067874 140.37635398 134.84844792 C140.38148846 138.35270254 140.3932124 141.8566049 140.42292023 145.36074448 C140.68543742 177.63074311 136.37002223 207.8806671 122 237 C121.4225 238.17175781 120.845 239.34351563 120.25 240.55078125 C102.64177035 274.58520661 75.23635539 296.94890554 43.05078125 316.3359375 C38.98529658 318.78746621 34.94287421 321.27146364 30.91796875 323.7890625 C29.95439453 324.39137695 28.99082031 324.99369141 27.99804688 325.61425781 C26.15475267 326.76903872 24.31352811 327.92713127 22.47460938 329.08886719 C21.65154297 329.60352539 20.82847656 330.11818359 19.98046875 330.6484375 C19.25754639 331.10395996 18.53462402 331.55948242 17.78979492 332.02880859 C16 333 16 333 14 333 C14.68964844 334.06476563 15.37929688 335.12953125 16.08984375 336.2265625 C18.04627608 339.24740592 20.00015076 342.26988883 21.953125 345.29296875 C23.87086942 348.26012529 25.79735077 351.22117931 27.734375 354.17578125 C28.14953369 354.81241699 28.56469238 355.44905273 28.99243164 356.10498047 C29.77708962 357.30817614 30.56523368 358.509107 31.35717773 359.70751953 C34 363.77424212 34 363.77424212 34 366 C32.13916016 367.32519531 32.13916016 367.32519531 29.5390625 368.828125 C28.59160156 369.38113281 27.64414062 369.93414062 26.66796875 370.50390625 C25.66378906 371.08011719 24.65960938 371.65632813 23.625 372.25 C21.67950477 373.37989376 19.73419127 374.51010049 17.7890625 375.640625 C16.34321777 376.46723633 16.34321777 376.46723633 14.86816406 377.31054688 C12.95623704 378.43674155 11.07163196 379.61065697 9.21777344 380.83007812 C8.34926758 381.39662109 7.48076172 381.96316406 6.5859375 382.546875 C5.82071777 383.06604492 5.05549805 383.58521484 4.26708984 384.12011719 C2 385 2 385 -0.54785156 384.30053711 C-2.70967133 383.15398057 -4.77772649 381.99013755 -6.8203125 380.64453125 C-7.51584229 380.18989502 -8.21137207 379.73525879 -8.92797852 379.2668457 C-10.01550415 378.54694458 -10.01550415 378.54694458 -11.125 377.8125 C-12.63650288 376.82258697 -14.14822206 375.83300414 -15.66015625 374.84375 C-16.39637207 374.36035156 -17.13258789 373.87695312 -17.89111328 373.37890625 C-22.23180865 370.54072062 -26.61764811 367.773281 -31 365 C-30.34873519 361.45251018 -28.88549229 358.95815252 -26.9453125 355.9375 C-26.33042969 354.97585938 -25.71554688 354.01421875 -25.08203125 353.0234375 C-24.43621094 352.02570313 -23.79039062 351.02796875 -23.125 350 C-22.48691406 349.00226563 -21.84882813 348.00453125 -21.19140625 346.9765625 C-16.30619289 339.36827613 -16.30619289 339.36827613 -14.22998047 336.87109375 C-13.82408691 336.25363281 -13.41819336 335.63617188 -13 335 C-14.25124263 331.2462721 -15.50944692 330.72526707 -18.78515625 328.59375 C-19.78281006 327.93793945 -20.78046387 327.28212891 -21.80834961 326.60644531 C-22.88221924 325.91131836 -23.95608887 325.21619141 -25.0625 324.5 C-27.27399052 323.04771677 -29.48492749 321.59459027 -31.6953125 320.140625 C-32.77844727 319.43099609 -33.86158203 318.72136719 -34.97753906 317.99023438 C-40.73693762 314.19777742 -46.4095705 310.28221007 -52.06835938 306.34179688 C-54.13965468 304.90299012 -56.21838102 303.47525915 -58.296875 302.046875 C-76.33088003 289.57936619 -91.94163732 275.70850637 -105 258 C-105.4228125 257.43216797 -105.845625 256.86433594 -106.28125 256.27929688 C-131.42822079 222.05584131 -138.38091036 182.48226564 -138.20278788 141.0351665 C-138.19011092 137.57725001 -138.18909688 134.11932836 -138.18673706 130.66139221 C-138.18057132 124.14184588 -138.16422847 117.62236827 -138.14403808 111.10285193 C-138.12152439 103.66850973 -138.11064714 96.2341639 -138.10064721 88.79979599 C-138.07985664 73.53315781 -138.04477837 58.26658784 -138 43 C-137.02993515 42.94563278 -136.0598703 42.89126556 -135.06040955 42.83525085 C-131.40742033 42.62979576 -127.75464248 42.420765 -124.10191345 42.21073914 C-122.53106509 42.12089977 -120.96016342 42.03198699 -119.38920593 41.94407654 C-80.59955936 39.77050876 -37.88382856 32.24668668 -7 7 C-5.99259766 6.20335938 -5.99259766 6.20335938 -4.96484375 5.390625 C-2.04355 3.06843897 -2.04355 3.06843897 0 0 Z M-32.171875 39.828125 C-33.22133301 40.21395752 -34.27079102 40.59979004 -35.35205078 40.99731445 C-37.03403564 41.6173938 -37.03403564 41.6173938 -38.75 42.25 C-63.15023538 51.09427038 -88.02195819 56.13001092 -113.9765625 57.55078125 C-115.14119019 57.61682556 -115.14119019 57.61682556 -116.3293457 57.6842041 C-118.2194694 57.79115105 -120.10972196 57.89581671 -122 58 C-122.06995118 71.84911715 -122.12303811 85.69819128 -122.15543652 99.54745007 C-122.17099729 105.9803466 -122.19205742 112.41312099 -122.22631836 118.84594727 C-122.25925747 125.07055652 -122.27692481 131.29504937 -122.28463173 137.51973915 C-122.29011392 139.87761578 -122.30081619 142.23548707 -122.31719017 144.59331322 C-122.63784396 192.74480991 -108.05820813 234.58817295 -74.125 269.1875 C-66.24885825 277.01270469 -57.42996127 283.46010809 -48.1796875 289.5625 C-42.53795332 293.30439284 -36.91470654 297.07212378 -31.30859375 300.8671875 C-30.21658913 301.60631882 -30.21658913 301.60631882 -29.1025238 302.36038208 C-26.88057828 303.86485515 -24.65900773 305.36988057 -22.4375 306.875 C-20.17493253 308.40741814 -17.9122587 309.93967883 -15.64942932 311.47171021 C-14.25907279 312.41309077 -12.8688738 313.35470408 -11.47886658 314.29660034 C-10.23332015 315.14012032 -8.98503235 315.97961121 -7.73361206 316.81439209 C-6.0686539 317.95304797 -4.45462017 319.16510187 -2.84399414 320.37939453 C-0.177254 322.22225735 -0.177254 322.22225735 2.54174805 321.94189453 C5.36794166 320.85902086 7.76438105 319.53631525 10.33203125 317.9296875 C11.36626221 317.28789551 12.40049316 316.64610352 13.46606445 315.98486328 C14.57038818 315.2886084 15.67471191 314.59235352 16.8125 313.875 C17.96992482 313.15158643 19.12772672 312.42877584 20.28588867 311.70654297 C22.67593014 310.21484469 25.06327714 308.71894881 27.44921875 307.22070312 C30.81720604 305.10928361 34.20347491 303.02859498 37.59375 300.953125 C53.02672276 291.47780839 66.89395184 281.52578038 80 269 C80.77214844 268.27554688 81.54429687 267.55109375 82.33984375 266.8046875 C84.22567401 265.16336994 84.22567401 265.16336994 84 263 C84.66 263 85.32 263 86 263 C87.95361266 260.70808624 89.77073182 258.41472659 91.5625 256 C92.0997168 255.2766748 92.63693359 254.55334961 93.19042969 253.80810547 C117.55768804 220.35929604 124.57134599 183.14420956 124.29296875 142.47265625 C124.28735492 140.01688398 124.28309331 137.56110829 124.28010559 135.10533142 C124.26879726 128.72523277 124.23945527 122.3453478 124.20599365 115.96533203 C124.17498594 109.42157886 124.16153548 102.87779026 124.14648438 96.33398438 C124.11456844 83.55589983 124.06414644 70.77796142 124 58 C122.8209761 57.92286774 122.8209761 57.92286774 121.61813354 57.84417725 C117.99247357 57.60416338 114.36734834 57.35680914 110.7421875 57.109375 C109.50621826 57.02864746 108.27024902 56.94791992 106.99682617 56.86474609 C82.48624584 55.17213778 58.83613746 49.53767086 36.05444336 40.36425781 C35.18827393 40.02749023 34.32210449 39.69072266 33.4296875 39.34375 C32.28862549 38.88258789 32.28862549 38.88258789 31.12451172 38.41210938 C29.0136559 37.83076894 29.0136559 37.83076894 27.06201172 38.58935547 C24.26094836 40.50559323 21.94229869 42.81180479 19.578125 45.2265625 C19.07327576 45.73424164 18.56842651 46.24192078 18.04827881 46.76498413 C16.44407904 48.38033842 14.84699144 50.00252209 13.25 51.625 C12.16061893 52.72441698 11.0707801 53.82338059 9.98046875 54.921875 C7.31498115 57.6093602 4.65584857 60.30299021 2 63 C-1.90346247 61.42190714 -4.47950397 58.74559865 -7.3515625 55.7734375 C-7.8516684 55.26575836 -8.35177429 54.75807922 -8.86703491 54.23501587 C-10.45794101 52.6197514 -12.04220293 50.99820891 -13.625 49.375 C-15.71567017 47.23130558 -17.81274899 45.094194 -19.9140625 42.9609375 C-20.39428864 42.46411469 -20.87451477 41.96729187 -21.36929321 41.45541382 C-22.54198503 40.26540628 -23.76686975 39.12725944 -25 38 C-27.6809165 38 -29.65480715 38.89438783 -32.171875 39.828125 Z " fill="#C8D0F6" transform="translate(255,117)"/>
<path d="M0 0 C0.09498779 0.62229492 0.18997559 1.24458984 0.2878418 1.88574219 C7.80261801 50.49764767 25.25510002 95.21855918 58.96875 131.78125 C60.78958125 133.77015799 62.52087406 135.80682976 64.25 137.875 C94.2453962 172.04783723 143.13916903 198.51764676 188 205 C187.00431912 213.09695209 175.62295552 220.54727711 169.5 225.4375 C161.97976291 231.2880722 153.94313229 236.29571705 145.82666016 241.26806641 C142.66446068 243.20558956 139.50978143 245.15514957 136.35546875 247.10546875 C125.10883537 254.05244275 125.10883537 254.05244275 119.93701172 257.19433594 C118.00041884 258.38494616 116.07944315 259.60139439 114.17626953 260.84472656 C112.86891846 261.68342285 112.86891846 261.68342285 111.53515625 262.5390625 C110.77726807 263.03873535 110.01937988 263.5384082 109.23852539 264.05322266 C106.37923835 265.26254921 104.9230706 264.93297761 102 264 C99.29296875 262.27734375 99.29296875 262.27734375 96.1875 259.9375 C89.69685384 255.14502427 83.03887148 250.64200845 76.3125 246.1875 C74.22896795 244.8023822 72.1456343 243.41696592 70.0625 242.03125 C65.66680983 239.10817967 65.66680983 239.10817967 61.26953125 236.1875 C36.8977172 219.96420472 16.56625295 201.71209023 2 176 C1.67290039 175.42507813 1.34580078 174.85015625 1.00878906 174.2578125 C-8.49335072 157.27447583 -14.52386661 138.47486474 -16.73803711 119.15795898 C-16.94593881 117.44533727 -17.21673486 115.74037146 -17.50927734 114.04016113 C-18.21227994 109.10323205 -18.13152776 104.17696757 -18.11352539 99.19946289 C-18.11367142 98.13530151 -18.11381744 97.07114014 -18.1139679 95.97473145 C-18.11327388 92.47401863 -18.10550545 88.97335971 -18.09765625 85.47265625 C-18.09579025 83.03885426 -18.09436721 80.60505189 -18.09336853 78.17124939 C-18.08955766 71.77785193 -18.07973959 65.38447732 -18.06866455 58.99108887 C-18.05841967 52.46216135 -18.05386432 45.93323012 -18.04882812 39.40429688 C-18.03811603 26.60285485 -18.02125009 13.80142864 -18 1 C-15.1875205 0.83298107 -12.37501801 0.66636797 -9.5625 0.5 C-8.76005859 0.45230469 -7.95761719 0.40460938 -7.13085938 0.35546875 C-1.11328125 0 -1.11328125 0 0 0 Z " fill="#E8E8FE" transform="translate(151,174)"/>
<path d="M0 0 C3.23210723 1.69649067 5.55781187 3.88376174 8.0390625 6.53125 C22.42234432 21.42367454 44.53038745 28.21244864 63.9765625 33.34375 C64.7077832 33.53952637 65.43900391 33.73530273 66.19238281 33.93701172 C85.88834585 39.09290511 106.3285723 40.79864344 126.63818359 40.7019043 C132.7073207 40.77496775 137.14953206 41.24564546 142.28857422 44.58837891 C148.59728777 51.14893002 148.54471251 57.34518765 148.46240234 66.06176758 C148.46619904 67.33110138 148.46999573 68.60043518 148.47390747 69.90823364 C148.48356755 73.37811884 148.46833105 76.84748603 148.44800138 80.31730866 C148.43033398 83.96972632 148.43395762 87.62213022 148.4347229 91.27458191 C148.43285147 97.41873735 148.41552472 103.56269496 148.38818359 109.70678711 C148.35688856 116.76448867 148.34618231 123.82197265 148.3476547 130.87973863 C148.34901809 138.44102451 148.33505037 146.00222876 148.31676149 153.56348968 C148.31254203 155.71683243 148.311085 157.87016159 148.31028366 160.02350807 C148.29698527 178.53912789 148.12759014 196.84133061 143.9140625 214.96875 C143.70563721 215.87061035 143.49721191 216.7724707 143.2824707 217.70166016 C139.13299675 234.65152677 132.44610142 251.09857995 123.9765625 266.34375 C123.45908447 267.28371826 123.45908447 267.28371826 122.93115234 268.24267578 C114.81372234 282.81841773 104.45059096 295.30204098 92.9765625 307.34375 C92.25082031 308.12234375 91.52507812 308.9009375 90.77734375 309.703125 C73.6160782 327.59398225 51.26050815 339.80314928 30.16943359 352.41210938 C28.10956653 353.65829902 26.06416402 354.92887347 24.03759766 356.22851562 C23.15765137 356.78732422 22.27770508 357.34613281 21.37109375 357.921875 C20.6128833 358.4159082 19.85467285 358.90994141 19.07348633 359.41894531 C16.9765625 360.34375 16.9765625 360.34375 14.82202148 360.13354492 C12.00288 358.92704635 10.91381114 356.91909681 9.2265625 354.40625 C8.61296875 353.51035156 7.999375 352.61445313 7.3671875 351.69140625 C5.9765625 349.34375 5.9765625 349.34375 5.9765625 347.34375 C7.69458008 346.11376953 7.69458008 346.11376953 10.12109375 344.7265625 C11.01658936 344.20787598 11.91208496 343.68918945 12.8347168 343.15478516 C13.80965088 342.59839355 14.78458496 342.04200195 15.7890625 341.46875 C25.67820328 335.73133017 35.37993767 329.76034134 45.00683594 323.59521484 C46.69683693 322.52147351 48.40173014 321.47123465 50.109375 320.42578125 C66.76775896 310.2024873 82.2279939 296.98745335 93.9765625 281.34375 C94.3797168 280.81023926 94.78287109 280.27672852 95.19824219 279.72705078 C112.80402261 256.2819973 124.03203864 230.26429384 128.9765625 201.34375 C129.14382843 200.44455841 129.31109436 199.54536682 129.48342896 198.618927 C131.61051912 185.42389058 131.32995002 172.10496516 131.38127947 158.77398801 C131.39708692 155.19855782 131.42381922 151.6232082 131.4493103 148.0478363 C131.49579046 141.30162482 131.53268168 134.55539764 131.56598318 127.80910963 C131.60442427 120.11841044 131.6537755 112.42779278 131.70396733 104.73716271 C131.80682864 88.9394177 131.89623544 73.14162666 131.9765625 57.34375 C130.86083217 57.34924252 130.86083217 57.34924252 129.72256184 57.354846 C126.31480137 57.36948434 122.90704756 57.37850994 119.49926758 57.38745117 C118.3292646 57.39330986 117.15926163 57.39916855 115.95380402 57.40520477 C107.38263035 57.42205659 99.14708702 56.94390049 90.6640625 55.65625 C89.41117432 55.47618408 88.15828613 55.29611816 86.86743164 55.1105957 C55.46869747 50.40390193 21.76242144 41.57543383 -1.8671875 19.32421875 C-3.83843932 17.51366681 -5.85362092 15.90700422 -8.0234375 14.34375 C-8.22710937 14.89675781 -8.43078125 15.44976562 -8.640625 16.01953125 C-20.93477836 36.68343309 -55.39905601 44.35961178 -76.546875 49.984375 C-87.66248682 52.80420095 -98.673116 54.88180238 -110.0859375 56.03125 C-111.22998047 56.16080078 -112.37402344 56.29035156 -113.55273438 56.42382812 C-121.0704563 57.2015235 -128.46445697 57.4154376 -136.01733398 57.37817383 C-136.98328239 57.37568886 -137.9492308 57.37320389 -138.94445038 57.37064362 C-141.30413296 57.36421272 -143.66377481 57.35519321 -146.0234375 57.34375 C-145.96252872 73.27916005 -145.88477143 89.21439689 -145.78772259 105.14962292 C-145.74302671 112.55098725 -145.7035542 119.95230626 -145.67700195 127.35375977 C-145.65380686 133.81551841 -145.62017647 140.27713041 -145.57473594 146.73877221 C-145.55108874 150.15051194 -145.53217592 153.56210906 -145.52582359 156.97392845 C-145.47529692 176.78197132 -144.50811929 196.03281258 -139.2109375 215.21875 C-138.95014404 216.18087402 -138.68935059 217.14299805 -138.4206543 218.13427734 C-130.73474957 245.72766989 -116.05459072 269.23424814 -97.0234375 290.34375 C-96.30929688 291.14296875 -95.59515625 291.9421875 -94.859375 292.765625 C-81.99657188 306.3733781 -65.3355349 316.28046855 -49.81445312 326.49707031 C-39.70231566 333.18778128 -29.77276763 340.1350292 -20.0234375 347.34375 C-21.30888408 350.90680823 -22.82188406 353.67219233 -25.1484375 356.65625 C-25.68726563 357.35363281 -26.22609375 358.05101562 -26.78125 358.76953125 C-27.19117188 359.28902344 -27.60109375 359.80851562 -28.0234375 360.34375 C-32.29038291 358.86062957 -35.74436714 356.62436642 -39.3984375 354.03125 C-45.08079267 350.05694231 -50.79538968 346.13509197 -56.546875 342.26171875 C-57.21806366 341.80925278 -57.88925232 341.3567868 -58.58078003 340.89060974 C-61.31277624 339.04912789 -64.04483885 337.20777279 -66.78045654 335.37167358 C-78.29088337 327.64321365 -89.57002603 319.82669222 -99.78125 310.3984375 C-101.71450063 308.62685243 -103.68633084 306.94592659 -105.7109375 305.28125 C-109.57473066 301.97198271 -112.78163139 298.25479259 -116.0234375 294.34375 C-116.44753906 293.84794434 -116.87164062 293.35213867 -117.30859375 292.84130859 C-139.16300177 267.25064907 -154.67725742 234.65449563 -160.0234375 201.34375 C-160.19774796 200.25957291 -160.37205841 199.17539581 -160.551651 198.05836487 C-162.45873201 184.22421579 -162.36990217 170.37306737 -162.39088321 156.43079448 C-162.39456432 154.28935343 -162.40082211 152.14793456 -162.4078846 150.00650215 C-162.43221841 142.51482265 -162.44540171 135.02321112 -162.44897461 127.53149414 C-162.45262659 120.57662863 -162.48268097 113.62219973 -162.52437919 106.66746801 C-162.55911486 100.66108999 -162.57452338 94.65485712 -162.57522064 88.64837939 C-162.5760105 85.0756168 -162.58461857 81.50330441 -162.61321831 77.9306469 C-162.64434311 73.95611475 -162.63532365 69.98221402 -162.62280273 66.00756836 C-162.63763702 64.83809158 -162.65247131 63.66861481 -162.66775513 62.46369934 C-162.6053018 55.49991163 -161.69395397 50.67269784 -157.0234375 45.34375 C-151.11135242 40.2968481 -144.75347069 40.76423284 -137.22109985 40.7303772 C-133.71290219 40.71069695 -130.20639021 40.61811972 -126.69921875 40.53515625 C-126.0164537 40.52048813 -125.33368866 40.50582001 -124.63023376 40.4907074 C-101.3305337 39.96623559 -77.76663919 34.53159485 -56.08496094 26.12695312 C-54.21951803 25.41824388 -52.32938726 24.77537585 -50.4375 24.140625 C-37.63032365 19.73718906 -27.2665148 12.10163161 -18.0234375 2.34375 C-13.12997591 -1.88843299 -6.0215006 -1.95291911 0 0 Z " fill="#7655FE" transform="translate(263.0234375,102.65625)"/>
<path d="M0 0 C3.48634837 1.32955942 6.73011817 2.85758487 10 4.65234375 C10.957854 5.17562256 11.91570801 5.69890137 12.90258789 6.23803711 C13.92473389 6.79885986 14.94687988 7.35968262 16 7.9375 C18.18575866 9.12580832 20.37196403 10.3132953 22.55859375 11.5 C25.59901428 13.15147565 28.63931041 14.80310468 31.67626953 16.4609375 C75.11130425 40.09533422 121.6029815 58.80031384 171 64 C171 77.2 171 90.4 171 104 C171.66 104.33 172.32 104.66 173 105 C71.97828379 129.73798866 71.97828379 129.73798866 29.6875 106.8125 C22.16427251 102.1663987 15.08309566 95.95747077 11 88 C11 87.01 11 86.02 11 85 C23.87 81.7 36.74 78.4 50 75 C41.19698684 72.33182274 41.19698684 72.33182274 32.38110352 69.70678711 C19.69954322 65.74729467 10.52231552 58.92205855 4.25 47.125 C-0.79781038 37.19763959 -0.24741375 26.74340094 -0.125 15.9375 C-0.11495008 14.38867766 -0.10582779 12.83984901 -0.09765625 11.29101562 C-0.07580207 7.52718572 -0.04138343 3.76366377 0 0 Z " fill="#FEAA6F" transform="translate(10,10)"/>
<path d="M0 0 C0.66 0 1.32 0 2 0 C3.67136758 2.21610961 5.220272 4.43799999 6.75 6.75 C7.7333752 8.2090077 8.7178028 9.66730647 9.703125 11.125 C10.23099609 11.90875 10.75886719 12.6925 11.30273438 13.5 C14.32283141 17.94847435 17.41310083 22.34774327 20.5 26.75 C21.3986377 28.03535645 21.3986377 28.03535645 22.31542969 29.34667969 C25.41770275 33.80328389 25.41770275 33.80328389 28.68554688 38.13769531 C30 40 30 40 30 42 C36.66716939 38.45468695 42.93943364 34.4839974 49.1875 30.25 C51.03074105 29.01226257 52.87449279 27.77528532 54.71875 26.5390625 C55.61335937 25.93868164 56.50796875 25.33830078 57.4296875 24.71972656 C61.00021562 22.33078279 64.58459088 19.96478975 68.1875 17.625 C69.27417969 16.91601562 70.36085938 16.20703125 71.48046875 15.4765625 C74 14 74 14 76 14 C76 43.7 76 73.4 76 104 C75.67 104 75.34 104 75 104 C74.67 97.07 74.34 90.14 74 83 C71.6075 82.360625 69.215 81.72125 66.75 81.0625 C42.8779395 74.26536585 20.15680284 61.8566861 2 45 C-1.14298271 46.39149675 -3.19213179 48.0296613 -5.625 50.4375 C-20.68062764 64.01708571 -52.26719521 83 -73 83 C-73 89.93 -73 96.86 -73 104 C-73.33 104 -73.66 104 -74 104 C-74 74.3 -74 44.6 -74 14 C-70.56075034 15.37569986 -68.01414601 16.47792675 -64.98828125 18.3984375 C-63.86401733 19.1092749 -63.86401733 19.1092749 -62.71704102 19.83447266 C-61.52679321 20.59703369 -61.52679321 20.59703369 -60.3125 21.375 C-59.48613037 21.90013184 -58.65976074 22.42526367 -57.80834961 22.96630859 C-51.06950597 27.26797014 -44.40730639 31.68181929 -37.78833008 36.16552734 C-37.08603271 36.63941895 -36.38373535 37.11331055 -35.66015625 37.6015625 C-35.04793213 38.01744629 -34.43570801 38.43333008 -33.80493164 38.86181641 C-31.92443766 40.04764935 -30.00319873 41.03857505 -28 42 C-27.77183594 41.31550781 -27.54367188 40.63101563 -27.30859375 39.92578125 C-25.68840619 36.30333205 -23.45010122 33.32585674 -21.0625 30.1875 C-16.94590478 24.68013527 -12.94538646 19.11228385 -9.0625 13.4375 C-8.61463135 12.78354248 -8.1667627 12.12958496 -7.70532227 11.45581055 C-7.27791748 10.829729 -6.8505127 10.20364746 -6.41015625 9.55859375 C-6.00297363 8.96288574 -5.59579102 8.36717773 -5.17626953 7.75341797 C-4.3898308 6.58110518 -3.61992102 5.39753961 -2.86669922 4.20361328 C-1.95837322 2.77133367 -0.98498599 1.3806823 0 0 Z " fill="#FEDB56" transform="translate(255,10)"/>
<path d="M0 0 C1.01362106 -0.02451233 2.02724213 -0.04902466 3.07157898 -0.07427979 C6.37073378 -0.13844487 9.66908985 -0.17593909 12.96875 -0.203125 C14.09181549 -0.21424316 15.21488098 -0.22536133 16.37197876 -0.23681641 C38.8550826 -0.34870943 59.14504987 3.70874174 80.46875 10.546875 C79.01047071 19.31295639 70.97107796 25.84847209 64.0234375 30.95703125 C33.11254057 50.19362919 -9.58727427 44.99659894 -43.53125 38.546875 C-44.86900178 38.23174159 -46.2057893 37.91025196 -47.53125 37.546875 C-45.58604432 25.68112038 -40.04835657 16.01526092 -30.53125 8.546875 C-20.67989249 2.49847895 -11.40430997 0.25820393 0 0 Z " fill="#FE8F75" transform="translate(410.53125,84.453125)"/>
<path d="M0 0 C1.09341705 0.00064453 2.18683411 0.00128906 3.31338501 0.00195312 C18.95745444 0.06783589 33.13685207 0.61970217 45.8125 10.875 C46.42609375 11.35324219 47.0396875 11.83148438 47.671875 12.32421875 C54.75770205 18.54783233 59.70930918 28.58273887 60.8125 37.875 C25.20300678 45.33553276 -18.82728244 51.01240801 -51.390625 30.90234375 C-57.6843857 26.34024626 -63.6058194 20.8552721 -67.1875 13.875 C-67.1875 12.885 -67.1875 11.895 -67.1875 10.875 C-44.79032289 3.69262167 -23.58745603 -0.13004682 0 0 Z " fill="#FE8F75" transform="translate(88.1875,84.125)"/>
<path d="M0 0 C3.14298271 1.39149675 5.19213179 3.0296613 7.625 5.4375 C24.56502273 20.6945563 47.56981626 30.05220768 69 37 C71.97 37.99 71.97 37.99 75 39 C75 45.93 75 52.86 75 60 C49.67690398 56.38241485 21.15220069 42.02636975 3.45629883 23.42456055 C2.03727748 21.89123973 2.03727748 21.89123973 0 21 C0 21.66 0 22.32 0 23 C-1.56595989 24.46176104 -3.20607169 25.84449814 -4.875 27.1875 C-5.77992188 27.92355469 -6.68484375 28.65960938 -7.6171875 29.41796875 C-15.20379328 35.30198943 -23.05190687 40.42973818 -31.5625 44.875 C-32.53614502 45.38385742 -33.50979004 45.89271484 -34.51293945 46.41699219 C-61.27707836 60 -61.27707836 60 -73 60 C-73 53.07 -73 46.14 -73 39 C-70.69322266 38.21689453 -70.69322266 38.21689453 -68.33984375 37.41796875 C-43.29850864 28.7599541 -19.20953741 18.71234938 0 0 Z " fill="#FEB338" transform="translate(255,54)"/>
<path d="M0 0 C2.92137389 1.30116867 4.72019936 2.60221194 6.8125 5 C15.67549588 14.09073882 27.39740749 20.18678287 39 25 C37.60919475 28.13738154 35.98977796 30.25475281 33.56005859 32.66699219 C32.85948334 33.36741638 32.15890808 34.06784058 31.43710327 34.78948975 C30.68184357 35.53442688 29.92658386 36.27936401 29.1484375 37.046875 C28.37440582 37.81807678 27.60037415 38.58927856 26.80288696 39.3838501 C24.33158077 41.84396856 21.85340817 44.29703848 19.375 46.75 C17.69745948 48.41750894 16.02037055 50.08547232 14.34375 51.75390625 C10.23439081 55.8412237 6.11937353 59.92277696 2 64 C-1.12265393 62.61222556 -3.25298689 60.99953492 -5.66699219 58.59179688 C-6.36741638 57.897677 -7.06784058 57.20355713 -7.78948975 56.48840332 C-8.90689545 55.36492493 -8.90689545 55.36492493 -10.046875 54.21875 C-11.20367767 53.0648175 -11.20367767 53.0648175 -12.3838501 51.88757324 C-14.01015129 50.26263173 -15.63393476 48.63516701 -17.25537109 47.00537109 C-19.74746268 44.50254825 -22.25006592 42.01059437 -24.75390625 39.51953125 C-26.33137112 37.94074532 -27.90821577 36.36133939 -29.484375 34.78125 C-30.23740906 34.0322644 -30.99044312 33.28327881 -31.76629639 32.51159668 C-32.45411194 31.81747681 -33.14192749 31.12335693 -33.85058594 30.40820312 C-34.46029236 29.79690552 -35.06999878 29.18560791 -35.69818115 28.55578613 C-37 27 -37 27 -37 25 C-35.99582031 24.52691406 -34.99164063 24.05382812 -33.95703125 23.56640625 C-14.40561234 14.71386238 -14.40561234 14.71386238 0 0 Z " fill="#FEDA59" transform="translate(255,117)"/>
<path d="M0 0 C4.03793452 0.77513922 6.68944572 2.69839717 10 5.0390625 C11.93345204 6.17877057 11.93345204 6.17877057 14 5.81640625 C16.98186617 4.59919916 19.4032672 2.74489818 22 0.86328125 C24 0 24 0 25.88623047 0.60302734 C28.7184069 2.47478913 30.00574375 4.62359571 31.8203125 7.48828125 C32.52027344 8.58720703 33.22023438 9.68613281 33.94140625 10.81835938 C34.29992676 11.39223389 34.65844727 11.9661084 35.02783203 12.55737305 C36.11865558 14.3023509 37.22392006 16.03744543 38.33203125 17.77148438 C44.18670615 27.02966251 44.18670615 27.02966251 46 32 C45.38592285 32.3623877 44.7718457 32.72477539 44.13916016 33.09814453 C41.30088742 34.7733917 38.46294236 36.44919322 35.625 38.125 C34.65949219 38.69476563 33.69398438 39.26453125 32.69921875 39.8515625 C31.73886719 40.41875 30.77851563 40.9859375 29.7890625 41.5703125 C28.34321777 42.41577637 28.34321777 42.41577637 26.86816406 43.27832031 C24.95942752 44.42408215 23.07499811 45.61136489 21.21777344 46.83886719 C20.34926758 47.40508789 19.48076172 47.97130859 18.5859375 48.5546875 C17.43810791 49.33175049 17.43810791 49.33175049 16.26708984 50.12451172 C14 51 14 51 11.45214844 50.30004883 C9.29014151 49.15382353 7.22227769 47.9901403 5.1796875 46.64453125 C4.13639282 45.9625769 4.13639282 45.9625769 3.07202148 45.2668457 C2.34700439 44.78691162 1.6219873 44.30697754 0.875 43.8125 C-0.63650288 42.82258697 -2.14822206 41.83300414 -3.66015625 40.84375 C-4.39637207 40.36035156 -5.13258789 39.87695312 -5.89111328 39.37890625 C-10.23180865 36.54072062 -14.61764811 33.773281 -19 31 C-18.34844455 27.47138007 -16.90550925 24.98201439 -14.98046875 21.97265625 C-14.37009766 21.01552734 -13.75972656 20.05839844 -13.13085938 19.07226562 C-12.48955078 18.07904297 -11.84824219 17.08582031 -11.1875 16.0625 C-10.55779297 15.07314453 -9.92808594 14.08378906 -9.27929688 13.06445312 C-6.36760713 8.52123944 -3.42623787 4.17638589 0 0 Z " fill="#FEDB56" transform="translate(243,451)"/>
<path d="M0 0 C5.71684878 2.03934372 10.01494218 5.44564821 14 10 C14.70125 10.78375 15.4025 11.5675 16.125 12.375 C20.62100021 18.6694003 22.09659661 24.32382375 21 32 C19.68733403 35.96766267 17.73570418 38.46960861 14.3125 40.9375 C7.41513811 43.14986136 2.55777159 42.56791964 -4.0625 39.5625 C-11.26993728 35.66460025 -15.85614838 30.61774961 -20 23.625 C-21.62158425 17.74675709 -22.13033243 11.79608548 -19.8125 6.0625 C-13.86772194 -0.70224744 -8.69779932 -1.19543213 0 0 Z " fill="#FEFEFF" transform="translate(210,328)"/>
<path d="M0 0 C2.95200387 1.31129786 4.75867538 2.64302618 6.875 5.0625 C10.84397274 9.21465609 15.48712657 12.03789236 20.37646484 14.97875977 C21.94781345 15.93808486 23.4782993 16.96372393 25 18 C25 18.66 25 19.32 25 20 C23.77734375 21.19921875 23.77734375 21.19921875 21.9375 22.6875 C14.87122794 28.66763621 8.499092 35.4184 2 42 C-1.76603869 40.43717018 -4.13639151 38.0936525 -6.984375 35.2109375 C-7.44483215 34.74765045 -7.90528931 34.2843634 -8.37969971 33.80703735 C-9.84125078 32.33434102 -11.29567168 30.85482597 -12.75 29.375 C-13.74302611 28.37193678 -14.73651089 27.36932743 -15.73046875 26.3671875 C-18.15897941 23.91669165 -20.58114675 21.4600333 -23 19 C-19.58463248 16.25104566 -16.12689003 13.61571556 -12.5625 11.0625 C-5.36319507 6.38982148 -5.36319507 6.38982148 0 0 Z " fill="#FD8F76" transform="translate(255,117)"/>
<path d="M0 0 C4.20484056 1.05121014 6.53279275 2.58763862 10 5.0390625 C11.93345204 6.17877057 11.93345204 6.17877057 14 5.81640625 C16.98186617 4.59919916 19.4032672 2.74489818 22 0.86328125 C24 0 24 0 25.984375 0.48046875 C28.78352325 2.59067935 30.34600599 5.06643886 32.25 8 C32.95640625 9.0725 33.6628125 10.145 34.390625 11.25 C36 14 36 14 36 16 C32.62336096 18.52727432 28.93245388 20.59120767 25.3125 22.75 C23.80139648 23.69166016 23.80139648 23.69166016 22.25976562 24.65234375 C21.28330078 25.23628906 20.30683594 25.82023437 19.30078125 26.421875 C17.95753784 27.23543457 17.95753784 27.23543457 16.5871582 28.06542969 C14 29 14 29 11.42724609 28.31933594 C9.18234724 27.09911532 7.00545163 25.86114793 4.86328125 24.46875 C3.75049805 23.74751953 3.75049805 23.74751953 2.61523438 23.01171875 C1.85533203 22.51285156 1.09542969 22.01398438 0.3125 21.5 C-0.45900391 21.00113281 -1.23050781 20.50226563 -2.02539062 19.98828125 C-7.72550517 16.27449483 -7.72550517 16.27449483 -10 14 C-6.7 9.38 -3.4 4.76 0 0 Z " fill="#FD9075" transform="translate(243,451)"/>
<path d="M0 0 C4.50753145 2.97667171 7.21996428 5.86930879 9 11 C8.87714195 14.13288023 8.4789321 16.15482571 6.9375 18.875 C3.73720897 20.7332335 0.53910129 20.59096947 -3 20 C-7.46591923 17.85292345 -10.13642295 15.21888421 -12.37109375 10.87109375 C-13.46739479 7.60942792 -12.99229139 5.22494701 -12 2 C-8.828289 -2.05979008 -4.54002337 -1.42586476 0 0 Z " fill="#FEFEFF" transform="translate(180,307)"/>
<path d="M0 0 C4.26250997 1.17507032 7.25831988 4.39051211 10.16796875 7.59765625 C11.89432217 11.05036309 11.65203316 14.82195382 11.16796875 18.59765625 C9.60546875 20.66015625 9.60546875 20.66015625 7.16796875 21.59765625 C3.02320893 22.13493993 0.74599897 21.8810044 -3.01953125 20.03515625 C-7.19691559 16.41475649 -9.45350825 13.01074039 -10.33203125 7.41015625 C-9.83203125 4.59765625 -9.83203125 4.59765625 -8.33203125 2.22265625 C-5.52921732 0.40082719 -3.35246887 -0.14466564 0 0 Z " fill="#EAF5FA" transform="translate(304.83203125,60.40234375)"/>
<path d="M0 0 C3.4375 0.25 3.4375 0.25 7 1 C9.29013653 4.4352048 9.17842973 5.985331 9 10 C5.42236811 10.32523926 3.60457419 10.42956587 0.625 8.3125 C-1.28250465 5.59797415 -1.43903308 4.2488448 -1 1 C-0.67 0.67 -0.34 0.34 0 0 Z " fill="#EAF4F7" transform="translate(203,61)"/>
</svg>
